<svg xmlns="http://www.w3.org/2000/svg" viewBox="0 0 850 520">
  <defs>
    <linearGradient id="headerGrad" x1="0%" y1="0%" x2="100%" y2="0%">
      <stop offset="0%" style="stop-color:#1a1b26"/>
      <stop offset="100%" style="stop-color:#24283b"/>
    </linearGradient>
  </defs>
  
  <!-- Terminal Window -->
  <rect x="10" y="10" width="830" height="500" rx="12" ry="12" fill="#0d1117" stroke="#30363d" stroke-width="2"/>
  
  <!-- Terminal Header -->
  <rect x="10" y="10" width="830" height="35" rx="12" ry="12" fill="url(#headerGrad)"/>
  <rect x="10" y="33" width="830" height="12" fill="url(#headerGrad)"/>
  
  <!-- Traffic Lights -->
  <circle cx="35" cy="27" r="7" fill="#ff5f56"/>
  <circle cx="58" cy="27" r="7" fill="#ffbd2e"/>
  <circle cx="81" cy="27" r="7" fill="#27c93f"/>
  
  <!-- Terminal Title -->
  <text x="425" y="32" fill="#7aa2f7" font-family="monospace" font-size="14" text-anchor="middle">arham3117@github-profile: ~/Cloud-DevOps-Engineer</text>
  
  <!-- Online Status -->
  <text x="780" y="32" fill="#27c93f" font-family="monospace" font-size="12" text-anchor="end">● ONLINE</text>
  
  <!-- LEFT COLUMN -->
  
  <!-- whoami -->
  <text x="30" y="70" fill="#7aa2f7" font-family="monospace" font-size="13">arham3117@devops:~$</text>
  <text x="200" y="70" fill="#c0caf5" font-family="monospace" font-size="13">whoami</text>
  <text x="30" y="92" fill="#9ece6a" font-family="monospace" font-size="13">Muhammad Arham — Cloud &amp; DevOps Engineer</text>
  
  <!-- cat profile -->
  <text x="30" y="125" fill="#7aa2f7" font-family="monospace" font-size="13">arham3117@devops:~$</text>
  <text x="200" y="125" fill="#bb9af7" font-family="monospace" font-size="13">cat profile.yaml</text>
  
  <text x="30" y="150" fill="#f7768e" font-family="monospace" font-size="12">education:</text>
  <text x="45" y="170" fill="#c0caf5" font-family="monospace" font-size="12">MS Computer Science | Purdue University</text>
  
  <text x="30" y="195" fill="#f7768e" font-family="monospace" font-size="12">focus:</text>
  <text x="45" y="215" fill="#c0caf5" font-family="monospace" font-size="12">- Cloud Infrastructure &amp; Architecture</text>
  <text x="45" y="235" fill="#c0caf5" font-family="monospace" font-size="12">- DevOps &amp; CI/CD Automation</text>
  <text x="45" y="255" fill="#c0caf5" font-family="monospace" font-size="12">- Infrastructure as Code</text>
  <text x="45" y="275" fill="#c0caf5" font-family="monospace" font-size="12">- ML Systems &amp; MLOps</text>
  
  <!-- certifications -->
  <text x="30" y="310" fill="#7aa2f7" font-family="monospace" font-size="13">arham3117@devops:~$</text>
  <text x="200" y="310" fill="#bb9af7" font-family="monospace" font-size="13">ls ~/.certifications/</text>
  
  <text x="30" y="335" fill="#9ece6a" font-family="monospace" font-size="12">AWS-Solutions-Architect-Associate</text>
  <text x="30" y="355" fill="#9ece6a" font-family="monospace" font-size="12">AWS-Developer-Associate</text>
  <text x="30" y="375" fill="#9ece6a" font-family="monospace" font-size="12">AWS-Cloud-Practitioner</text>
  <text x="30" y="395" fill="#9ece6a" font-family="monospace" font-size="12">HashiCorp-Terraform-Associate</text>
  <text x="30" y="415" fill="#9ece6a" font-family="monospace" font-size="12">CodePath-Cybersecurity</text>
  
  <!-- RIGHT COLUMN -->
  
  <!-- kubectl get skills -->
  <text x="450" y="70" fill="#7aa2f7" font-family="monospace" font-size="13">arham3117@devops:~$</text>
  <text x="620" y="70" fill="#bb9af7" font-family="monospace" font-size="13">kubectl get skills</text>
  
  <text x="450" y="95" fill="#565f89" font-family="monospace" font-size="12">NAME             READY   STATUS    AGE</text>
  
  <!-- Skills with badges -->
  <rect x="450" y="105" width="40" height="18" rx="3" fill="#ff9900"/>
  <text x="456" y="118" fill="#0d1117" font-family="monospace" font-size="10" font-weight="bold">AWS</text>
  <text x="500" y="118" fill="#c0caf5" font-family="monospace" font-size="12">1/1     Running   2y</text>
  
  <rect x="450" y="128" width="75" height="18" rx="3" fill="#326ce5"/>
  <text x="456" y="141" fill="#ffffff" font-family="monospace" font-size="10" font-weight="bold">Kubernetes</text>
  <text x="535" y="141" fill="#c0caf5" font-family="monospace" font-size="12">1/1     Running   2y</text>
  
  <rect x="450" y="151" width="68" height="18" rx="3" fill="#7b42bc"/>
  <text x="456" y="164" fill="#ffffff" font-family="monospace" font-size="10" font-weight="bold">Terraform</text>
  <text x="528" y="164" fill="#c0caf5" font-family="monospace" font-size="12">1/1     Running   2y</text>
  
  <rect x="450" y="174" width="52" height="18" rx="3" fill="#2496ed"/>
  <text x="456" y="187" fill="#ffffff" font-family="monospace" font-size="10" font-weight="bold">Docker</text>
  <text x="512" y="187" fill="#c0caf5" font-family="monospace" font-size="12">1/1     Running   2y</text>
  
  <rect x="450" y="197" width="52" height="18" rx="3" fill="#3776ab"/>
  <text x="456" y="210" fill="#ffffff" font-family="monospace" font-size="10" font-weight="bold">Python</text>
  <text x="512" y="210" fill="#c0caf5" font-family="monospace" font-size="12">1/1     Running   3y</text>
  
  <rect x="450" y="220" width="45" height="18" rx="3" fill="#d24939"/>
  <text x="456" y="233" fill="#ffffff" font-family="monospace" font-size="10" font-weight="bold">CI/CD</text>
  <text x="505" y="233" fill="#c0caf5" font-family="monospace" font-size="12">1/1     Running   2y</text>
  
  <!-- tools -->
  <text x="450" y="270" fill="#7aa2f7" font-family="monospace" font-size="13">arham3117@devops:~$</text>
  <text x="620" y="270" fill="#bb9af7" font-family="monospace" font-size="13">cat tools.conf</text>
  
  <text x="450" y="295" fill="#565f89" font-family="monospace" font-size="12">[cloud]</text>
  <rect x="450" y="302" width="35" height="16" rx="3" fill="#ff9900"/>
  <text x="455" y="314" fill="#0d1117" font-family="monospace" font-size="9" font-weight="bold">AWS</text>
  <rect x="490" y="302" width="38" height="16" rx="3" fill="#0078d4"/>
  <text x="495" y="314" fill="#ffffff" font-family="monospace" font-size="9" font-weight="bold">Azure</text>
  <rect x="533" y="302" width="35" height="16" rx="3" fill="#4285f4"/>
  <text x="538" y="314" fill="#ffffff" font-family="monospace" font-size="9" font-weight="bold">GCP</text>
  
  <text x="450" y="340" fill="#565f89" font-family="monospace" font-size="12">[devops]</text>
  <rect x="450" y="347" width="55" height="16" rx="3" fill="#2088ff"/>
  <text x="455" y="359" fill="#ffffff" font-family="monospace" font-size="9" font-weight="bold">Actions</text>
  <rect x="510" y="347" width="50" height="16" rx="3" fill="#d24939"/>
  <text x="515" y="359" fill="#ffffff" font-family="monospace" font-size="9" font-weight="bold">Jenkins</text>
  <rect x="565" y="347" width="50" height="16" rx="3" fill="#ef7b4d"/>
  <text x="570" y="359" fill="#ffffff" font-family="monospace" font-size="9" font-weight="bold">ArgoCD</text>
  
  <text x="450" y="385" fill="#565f89" font-family="monospace" font-size="12">[monitoring]</text>
  <rect x="450" y="392" width="72" height="16" rx="3" fill="#e6522c"/>
  <text x="455" y="404" fill="#ffffff" font-family="monospace" font-size="9" font-weight="bold">Prometheus</text>
  <rect x="527" y="392" width="52" height="16" rx="3" fill="#f46800"/>
  <text x="532" y="404" fill="#ffffff" font-family="monospace" font-size="9" font-weight="bold">Grafana</text>
  <rect x="584" y="392" width="32" height="16" rx="3" fill="#005571"/>
  <text x="589" y="404" fill="#ffffff" font-family="monospace" font-size="9" font-weight="bold">ELK</text>
  
  <!-- status -->
  <text x="450" y="440" fill="#7aa2f7" font-family="monospace" font-size="13">arham3117@devops:~$</text>
  <text x="620" y="440" fill="#c0caf5" font-family="monospace" font-size="13">echo $STATUS</text>
  <text x="450" y="463" fill="#9ece6a" font-family="monospace" font-size="12">Open to opportunities | Building scalable systems</text>
  
  <!-- Cursor line -->
  <text x="30" y="463" fill="#7aa2f7" font-family="monospace" font-size="13">arham3117@devops:~$</text>
  <rect x="200" y="451" width="10" height="15" fill="#7aa2f7">
    <animate attributeName="opacity" values="1;0;1" dur="1.2s" repeatCount="indefinite"/>
  </rect>
  
</svg>
